<svg width="1400" height="900" viewBox="0 0 1400 900" fill="none" xmlns="http://www.w3.org/2000/svg">
  <rect width="1400" height="900" fill="#eef1f6"/>
  <rect x="180" y="60" width="1040" height="780" rx="28" fill="white"/>

  <rect x="180" y="60" width="1040" height="220" rx="28" fill="#1f2937"/>
  <rect x="180" y="240" width="1040" height="40" fill="#1f2937"/>

  <text x="250" y="140" font-size="24" font-family="Arial" fill="#f3f4f6">Yo Claudio</text>
  <text x="250" y="175" font-size="46" font-family="Arial" font-weight="700" fill="white">RECIBO OFICIAL</text>
  <text x="250" y="214" font-size="20" font-family="Arial" fill="#d1d5db">Comprobante de pago de cuota</text>

  <rect x="900" y="102" width="255" height="128" rx="14" fill="#111827" stroke="#374151"/>
  <text x="925" y="142" font-size="16" font-family="Arial" fill="#9ca3af">NÚMERO</text>
  <text x="925" y="184" font-size="34" font-family="Arial" font-weight="700" fill="#f472b6">#000348</text>

  <rect x="240" y="320" width="920" height="120" rx="16" fill="#f9fafb" stroke="#e5e7eb"/>
  <text x="270" y="363" font-size="18" font-family="Arial" fill="#6b7280">ALUMNO</text>
  <text x="270" y="403" font-size="30" font-family="Arial" font-weight="700" fill="#111827">Ernesto Castro</text>
  <text x="800" y="363" font-size="18" font-family="Arial" fill="#6b7280">CUIL</text>
  <text x="800" y="403" font-size="30" font-family="Arial" font-weight="700" fill="#111827">44.637.784</text>

  <rect x="240" y="470" width="920" height="240" rx="16" fill="#f9fafb" stroke="#e5e7eb"/>
  <text x="270" y="515" font-size="19" font-family="Arial" fill="#6b7280">Concepto</text>
  <text x="270" y="548" font-size="28" font-family="Arial" font-weight="700" fill="#111827">Cuota mensual</text>

  <text x="270" y="603" font-size="19" font-family="Arial" fill="#6b7280">Período</text>
  <text x="270" y="636" font-size="28" font-family="Arial" font-weight="700" fill="#111827">Marzo 2026</text>

  <text x="600" y="515" font-size="19" font-family="Arial" fill="#6b7280">Método de pago</text>
  <text x="600" y="548" font-size="28" font-family="Arial" font-weight="700" fill="#111827">Transferencia</text>

  <text x="600" y="603" font-size="19" font-family="Arial" fill="#6b7280">Fecha de pago</text>
  <text x="600" y="636" font-size="28" font-family="Arial" font-weight="700" fill="#111827">06/03/2026</text>

  <rect x="920" y="522" width="210" height="130" rx="14" fill="#fff2fa" stroke="#f6bfdc"/>
  <text x="940" y="560" font-size="18" font-family="Arial" fill="#9d174d">TOTAL</text>
  <text x="940" y="612" font-size="44" font-family="Arial" font-weight="700" fill="#e91e8f">$1.000</text>

  <text x="240" y="770" font-size="16" font-family="Arial" fill="#6b7280">Emitido por sistema interno · Documento no fiscal</text>
  <text x="1160" y="770" text-anchor="end" font-size="16" font-family="Arial" fill="#6b7280">06/03/2026 12:55</text>
</svg>
